<svg viewBox="0 0 56 56" fill="none" xmlns="http://www.w3.org/2000/svg"><rect x="4" y="4" width="48" height="48" rx="6" fill="#1a2236" stroke="#58a6ff" stroke-width="1.5"/><path d="M28 14C20.268 14 14 20.268 14 28C14 34.186 18.01 39.435 23.573 41.287C24.273 41.41 24.536 41.113 24.536 40.746C24.536 40.414 24.524 39.53 24.518 38.357C20.6 39.209 19.772 36.468 19.772 36.468C19.132 34.842 18.21 34.409 18.21 34.409C16.932 33.535 18.307 33.553 18.307 33.553C19.72 33.652 20.464 35.004 20.464 35.004C21.719 37.155 23.757 36.534 24.56 36.176C24.686 35.267 25.051 34.646 25.455 34.294C22.327 33.938 19.04 32.73 19.04 27.333C19.04 25.795 19.59 24.537 20.493 23.548C20.347 23.191 19.859 21.756 20.632 19.814C20.632 19.814 21.81 19.437 24.5 21.257C25.621 20.945 26.824 20.789 28.027 20.783C29.23 20.789 30.433 20.945 31.555 21.257C34.244 19.437 35.421 19.814 35.421 19.814C36.195 21.756 35.706 23.191 35.561 23.548C36.464 24.537 37.013 25.795 37.013 27.333C37.013 32.743 33.72 33.935 30.584 34.284C31.092 34.723 31.545 35.586 31.545 36.909C31.545 38.806 31.528 40.335 31.528 40.746C31.528 41.116 31.789 41.417 32.497 41.286C38.062 39.432 42.07 34.184 42.07 28C42.07 20.268 35.802 14 28.07 14H28Z" fill="#58a6ff"/></svg>